<?xml version="1.0" encoding="utf-8"?>
<svg viewBox="280.966 146.947 52.445 54.8" width="52.445" height="54.8" xmlns="http://www.w3.org/2000/svg">
  <g transform="matrix(1, 0, 0, 1, 105.999067, 96.87321)">
    <path class="st0" d="M 201.163 93.744 C 195.603 93.744 190.963 97.874 190.203 103.274 C 193.823 103.274 198.123 103.274 198.713 103.444 C 199.723 103.694 201.153 104.874 201.153 104.874 C 201.153 104.874 202.673 103.694 203.593 103.444 C 204.103 103.274 208.483 103.274 212.103 103.274 C 211.363 97.874 206.723 93.744 201.163 93.744 Z" style="fill: rgb(236, 121, 35);"/>
    <g transform="matrix(1, 0, 0, 1, 174.963165, 50.073635)">
      <path class="st2" d="M26.2,3.46c-0.67,0-1.43,0.08-2.11,0.17L26.2,54.8l2.11-51.09C27.63,3.54,26.96,3.54,26.2,3.46z" style="fill: rgb(130, 171, 192);"/>
      <path class="st2" d="M32.18,4.3L26.2,54.8L36.23,5.48C34.97,4.97,33.62,4.55,32.18,4.3z" style="fill: rgb(130, 171, 192);"/>
      <path class="st2" d="M39.69,7.17L26.2,54.8L43.06,9.61C42.05,8.68,40.95,7.92,39.69,7.17z" style="fill: rgb(130, 171, 192);"/>
      <path class="st2" d="M46.09,12.48L26.2,54.8l22.34-38.86C47.86,14.75,47.02,13.57,46.09,12.48z" style="fill: rgb(130, 171, 192);"/>
      <path class="st2" d="M50.39,19.39L26.2,54.8l25.54-31.44C51.41,22.09,50.98,20.82,50.39,19.39z" style="fill: rgb(130, 171, 192);"/>
      <path class="st2" d="M52.08,31.53c0.34-1.26,0.42-2.78,0.34-4.47L26.2,54.8L52.08,31.53z" style="fill: rgb(130, 171, 192);"/>
      <path class="st2" d="M26.2,54.8l15.51-10.03c1.52-2.11,5.9-5.99,7.17-7.42c0,0,0,0,0-0.08L26.2,54.8z" style="fill: rgb(130, 171, 192);"/>
      <g>
        <path class="st2" d="M29.66,53.28l12.48-5.56c-0.25-0.51-0.42-0.93-0.59-1.26L28.9,53.36C29.07,53.28,29.32,53.28,29.66,53.28z" style="fill: rgb(130, 171, 192);"/>
      </g>
      <g>
        <path class="st2" d="M32.18,53.19l10.79-2.87c0-0.51-0.08-1.01-0.25-1.43l-12.14,4.3C31,53.19,31.59,53.19,32.18,53.19z" style="fill: rgb(130, 171, 192);"/>
      </g>
      <g>
        <path class="st2" d="M41.96,53.11c0.34-0.51,0.59-0.93,0.76-1.35l-7.84,1.43C38,53.19,41.29,53.19,41.96,53.11z" style="fill: rgb(130, 171, 192);"/>
      </g>
      <path class="st2" d="M26.2,54.8L20.21,4.3c-1.43,0.34-2.78,0.76-4.05,1.26L26.2,54.8L26.2,54.8z" style="fill: rgb(130, 171, 192);"/>
      <path class="st2" d="M26.2,54.8L12.8,7.17c-1.26,0.76-2.44,1.52-3.46,2.44L26.2,54.8L26.2,54.8z" style="fill: rgb(130, 171, 192);"/>
      <path class="st2" d="M26.2,54.8L6.39,12.48c-0.93,1.1-1.77,2.28-2.44,3.37L26.2,54.8L26.2,54.8z" style="fill: rgb(130, 171, 192);"/>
      <path class="st2" d="M26.2,54.8L2.09,19.39c-0.59,1.35-1.01,2.7-1.35,3.88L26.2,54.8L26.2,54.8z" style="fill: rgb(130, 171, 192);"/>
      <path class="st2" d="M26.2,54.8L0.07,27.06c-0.17,1.77,0,3.2,0.34,4.47L26.2,54.8L26.2,54.8z" style="fill: rgb(130, 171, 192);"/>
      <path class="st2" d="M26.2,54.8L3.44,37.26c0,0,0,0,0,0.08c1.26,1.43,5.65,5.31,7.17,7.42L26.2,54.8L26.2,54.8z" style="fill: rgb(130, 171, 192);"/>
      <g>
        <path class="st2" d="M17.6,53.19l-7.84-1.43c0.17,0.42,0.42,0.93,0.76,1.35C11.11,53.19,14.48,53.19,17.6,53.19z" style="fill: rgb(130, 171, 192);"/>
      </g>
      <g>
        <path class="st2" d="M22.83,53.28c0.34,0,0.59,0,0.76,0.08l-12.65-6.91c-0.17,0.34-0.42,0.84-0.59,1.26L22.83,53.28z" style="fill: rgb(130, 171, 192);"/>
      </g>
      <g>
        <path class="st2" d="M20.3,53.19c0.59,0,1.1,0,1.6,0l-12.14-4.3c-0.17,0.42-0.25,0.93-0.25,1.43L20.3,53.19z" style="fill: rgb(130, 171, 192);"/>
      </g>
    </g>
    <g transform="matrix(1, 0, 0, 1, 174.963165, 50.073635)">
      <path class="st3" d="M16,0c0,1.01,0.76,1.6,1.35,2.11c0.59,0.59,1.35,1.01,1.85,1.6c-0.84-0.42-1.6-0.84-2.36-1.35 c-0.59-0.34-1.18-0.67-1.85-1.01c-0.17-0.08-0.42-0.25-0.67-0.17c-0.08,0.25,0.17,0.51,0.25,0.67c0.42,0.42,1.01,0.76,1.52,1.18 c0.51,0.34,1.1,0.67,1.52,1.1c-0.34,0-0.67-0.25-1.01-0.34c-0.84-0.34-1.69-0.67-2.61-1.01c-0.17-0.08-0.34-0.17-0.51,0 c0,0.34,0.34,0.51,0.51,0.67c0.42,0.34,0.93,0.59,1.43,0.93c0.25,0.17,0.51,0.34,0.59,0.59c-0.08,0.17-0.34,0.08-0.51,0 s-0.34-0.08-0.51-0.17s-0.84-0.51-1.01-0.17c-0.08,0.17,0.17,0.51,0.25,0.67c0.34,0.34,0.51,0.51,0.84,0.84 c0.08,0.08,0.17,0.25,0.34,0.34C15.58,6.66,16,6.83,16.08,7c0,0.08,0,0.34,0.08,0.51c0.08,0.34,0.42,0.51,0.42,0.76 c0,0.17-0.34,0.34-0.42,0.59c-0.08,0.34,0.17,0.59,0.34,0.84c0.08,0.17,0.25,0.25,0.25,0.42c0,0.25-0.25,0.34-0.25,0.51 c-0.08,0.25,0.17,0.51,0.34,0.67c0.17,0.17,0.42,0.34,0.42,0.59c0,0.25-0.25,0.42-0.25,0.67c0,0.25,0.17,0.59,0.42,0.76 c0.25,0.25,0.76,0.25,0.93,0.59c-0.08,0.17-0.25,0.17-0.34,0.34c0,0.17,0.25,0.34,0.34,0.51c0,0.25-0.25,0.51-0.25,0.93 c0,0.17,0.25,0.34,0.25,0.51c0,0.17-0.17,0.34-0.08,0.59c0,0.17,0.34,0.34,0.34,0.51c0,0.17-0.08,0.34,0,0.51 c0,0.17,0.25,0.25,0.25,0.42c0.08,0.25-0.08,0.51,0,0.67c0.08,0.17,0.34,0.25,0.34,0.42c0.08,0.17,0,0.34,0,0.51 c0,0.17,0.17,0.25,0.17,0.42c0.08,0.34,0,0.76,0.08,1.18c0,0.17,0.25,0.25,0.34,0.42c0.08,0.17,0,0.25,0.08,0.42 c0,0.17,0.17,0.25,0.17,0.42c0.08,0.17,0.08,0.34,0.08,0.51c0.08,0.17,0.25,0.17,0.34,0.34c0.08,0.08,0.08,0.25,0.17,0.42 c0.08,0.17,0.34,0.25,0.42,0.42c0.08,0.08,0.08,0.25,0.08,0.42c0.08,0.08,0.34,0.17,0.42,0.34c0.08,0.08,0.08,0.25,0.17,0.34 c0.08,0.17,0.34,0.17,0.42,0.34s0,0.34,0.08,0.51c0.17,0.17,0.59,0.08,0.67,0.34c-0.08,0.34-0.08,0.84-0.34,0.93 c-0.17,0.08-0.51,0.08-0.84,0.08c-1.43,0-2.7,0-4.05-0.08c-0.25,0-0.59,0-0.84,0c-0.42,0.08-0.84,0.17-0.93,0.67 c0,0.34,0.42,0.42,0.42,0.76c0,0.25-0.42,0.51-0.42,0.76c0,0.25,0.34,0.76,0.51,0.84c0.17,0.08,0.42,0.08,0.59,0.17 c0.17,0,0.42,0,0.59,0.17c-0.17,0.34-0.59,0.42-0.93,0.67c-0.34,0.17-0.76,0.42-0.67,0.84c0,0.34,0.42,0.59,0.67,0.59 c0.42,0.08,0.93-0.17,1.01,0.08c0.08,0.25-0.34,0.42-0.51,0.67c-0.17,0.17-0.51,0.51-0.34,0.76c0.08,0.25,0.59,0.25,0.93,0.17 c0.25-0.08,0.59-0.17,0.76-0.34c0.25-0.08,0.51-0.34,0.76-0.25c0,0.25-0.25,0.42-0.34,0.67c-0.17,0.25-0.51,0.67-0.42,1.18 c0,0.17,0.25,0.51,0.42,0.51c0.17,0.08,0.25,0,0.42,0.08c0.42,0.17,0.34,0.93,0.84,1.01c0.42,0,0.93-0.59,1.18-0.84 c0.17-0.17,0.34-0.25,0.51-0.51c0.17-0.17,0.34-0.51,0.51-0.51c0.25,0,0.08,0.51,0,0.59c-0.08,0.08-0.25,0.34-0.25,0.59 c0,0.08,0.08,0.17,0.17,0.34s0,0.42,0.08,0.59c0.08,0.25,0.34,0.59,0.59,0.59c0.34,0.08,0.42-0.25,0.76-0.25 c0.25,0,0.34,0.25,0.59,0.25c0.59,0,0.84-0.93,0.93-1.43c0.08-0.25,0.17-0.59,0.25-0.93c0.08-0.25,0.17-0.76,0.34-0.84 c0.08-0.08,0.25,0,0.34,0c0.17,0,0.34-0.17,0.51-0.25c0.17-0.08,0.34-0.25,0.51-0.17c0.17,0.08,0,0.17,0.08,0.42 c0.08,0.25,0.67,0.59,0.93,0.84c0.08,0.08,0.08,0.25,0.17,0.34c0.08,0.08,0.17,0.08,0.34,0.17c0.08,0.08,0.17,0.25,0.25,0.34 c0.08,0.08,0.25,0.08,0.34,0.25c0.08,0.08,0.08,0.25,0.25,0.34c0.08,0.08,0.34,0.17,0.34,0.25c0.08,0.08,0.08,0.25,0.08,0.34 c0.08,0.08,0.25,0.17,0.34,0.25c0.17,0.08,0.42,0.08,0.51,0.17c0.08,0.08,0.08,0.34,0.25,0.51c0.17,0.17,0.51,0.17,0.67,0.34 c0.08,0.17,0.08,0.34,0.17,0.51c0.08,0.08,0.17,0.17,0.34,0.25c0.08,0.08,0.25,0,0.42,0.08c0.17,0.08,0.08,0.42,0.25,0.59 c0.08,0.08,0.25,0.17,0.42,0.17c0.08,0,0.25-0.08,0.42-0.08c0.17,0,0.25,0.17,0.51,0.25c0.08,0.08-0.08,0.25,0,0.34 c0.17,0.08,0.34,0.08,0.42,0.17c0.08,0.17,0,0.25,0,0.51c0.08,0.25,0.34,0.76,0.67,0.84c0.17,0,0.34-0.17,0.59-0.08 c0.17,0.08,0.17,0.25,0.25,0.42c0.17,0.34,0.42,0.84,0.76,0.93c0.17,0,0.25-0.08,0.42-0.08c0.25,0.08,0.34,0.42,0.42,0.67 c0.08,0.17,0.34,0.51,0.59,0.51s0.42-0.17,0.51-0.34c0.08-0.25,0.17-0.59,0.34-0.67c0.34,0,0.25,0.51,0.25,0.67 c0.08,0.84,0.42,1.18,0.84,1.77c0.17,0.25,0.51,0.59,0.67,0.59c0.17,0,0.25-0.08,0.42,0c0.17,0,0.25,0.34,0.42,0.51 c0.08,0.25,0.25,0.42,0.34,0.59c0.25,0.42,0.34,0.84,0.84,0.93c0.25-0.25,0.17-0.84,0.08-1.26c0-0.51-0.08-0.93-0.08-1.43 c0-0.25,0.08-0.76,0.25-0.84c0.42-0.08,0.42,0.67,0.51,1.1c0.17,1.18,0.34,2.53,0.76,3.54c0.17,0.34,0.34,0.76,0.76,0.93 c0.08-0.08,0.08-0.34,0.08-0.51c0-1.52-0.25-3.12-0.34-4.55c0.25,0.42,0.25,1.01,0.42,1.52c0.25,0.76,0.42,1.35,0.93,1.77 c0.08,0.08,0.17,0.25,0.34,0.25c0.17-0.17,0.08-0.42,0.08-0.67c-0.17-1.69-0.59-3.29-0.93-4.81c0.25,0.17,0.25,0.51,0.42,0.76 c0.17,0.51,0.42,1.01,0.84,1.35c0.17,0.17,0.34,0.34,0.59,0.34c0.08-0.42-0.08-0.84-0.17-1.18c-0.59-1.77-1.52-3.29-2.28-4.97 c-0.17-0.34-0.34-0.67-0.51-0.93c-0.17-0.34-0.34-0.59-0.51-0.93c-0.25-0.42-0.59-0.93-0.93-1.43c-1.26-1.18-1.94-2.11-2.7-2.87 c-0.42-0.42-0.76-0.76-1.26-1.1c-0.42-0.34-0.84-0.67-1.26-1.1c-0.84-0.76-1.52-1.52-2.19-2.44c-0.34-0.42-0.67-0.84-1.01-1.35 c-0.08-0.17-0.25-0.51-0.25-0.67c0-0.17,0.34-0.42,0.42-0.59c0.17-0.17,0.25-0.42,0.42-0.59c0.17-0.17,0.42-0.42,0.67-0.51 c0.17-0.08,0.59-0.34,0.84-0.34c0.17,0,0.17,0.17,0.34,0.25c0.25-0.17,0.25-0.34,0.25-0.59c0-0.17-0.08-0.25-0.17-0.42 c-0.08-0.25,0-0.42-0.08-0.67c-0.17-0.25-0.42-0.34-0.67-0.51c-0.51-0.34-1.18-0.59-2.02-0.51c-0.42,0-0.84,0.17-1.26,0.08 c-0.25,0-0.59-0.25-0.84-0.42c-0.25-0.17-0.51-0.42-0.67-0.59c-0.34-0.34-0.67-0.84-0.93-1.26c-1.01-1.77-1.85-3.79-2.36-6.07 c-0.17-0.84-0.08-1.77-0.34-2.61c0-0.08-0.08-0.25-0.17-0.34c0-0.17,0-0.25-0.08-0.42c-0.17-0.51-0.51-1.1-0.76-1.52 c-0.25-0.51-0.67-0.84-1.01-1.26c-0.17-0.17-0.25-0.42-0.34-0.67c-0.42-0.59-0.84-1.18-1.26-1.69c-0.34-0.34-0.67-0.67-0.93-1.1 c-1.35-1.6-2.61-3.29-4.13-4.81c-0.17-0.17-0.34-0.42-0.59-0.42c-0.08,0.25,0,0.59,0.08,0.84c0.34,0.93,1.26,1.52,1.77,2.36 c-0.42-0.25-0.84-0.59-1.18-0.93c-0.34-0.08-0.76-0.42-1.1-0.76C17.85,1.26,17.09,0.51,16.25,0C16.17,0,16.17,0,16,0z" style="clip-rule: evenodd; fill: rgb(5, 95, 134); fill-rule: evenodd;"/>
    </g>
  </g>
</svg>