<?xml version="1.0" encoding="utf-8"?>
<!-- Generator: Adobe Illustrator 24.0.2, SVG Export Plug-In . SVG Version: 6.00 Build 0)  -->
<svg version="1.1" id="Layer_1" xmlns="http://www.w3.org/2000/svg" xmlns:xlink="http://www.w3.org/1999/xlink" x="0px" y="0px"
	 viewBox="0 0 269 57.79" style="enable-background:new 0 0 269 57.79;" xml:space="preserve">
<style type="text/css">
	.st0{fill:#EC7923;}
	.st1{fill:#F89521;}
	.st2{fill:#82ABC0;}
	.st3{fill-rule:evenodd;clip-rule:evenodd;fill:#055F86;}
	.st4{fill:#055F86;}
</style>
<g>
	<g>
		<path class="st0" d="M26.2,43.67c-5.56,0-10.2,4.13-10.96,9.53c3.62,0,7.92,0,8.51,0.17c1.01,0.25,2.44,1.43,2.44,1.43
			s1.52-1.18,2.44-1.43c0.51-0.17,4.89-0.17,8.51-0.17C36.4,47.8,31.76,43.67,26.2,43.67z"/>
		<path class="st1" d="M26.2,52.86"/>
		<g>
			<path class="st2" d="M26.2,3.46c-0.67,0-1.43,0.08-2.11,0.17L26.2,54.8l2.11-51.09C27.63,3.54,26.96,3.54,26.2,3.46z"/>
			<path class="st2" d="M32.18,4.3L26.2,54.8L36.23,5.48C34.97,4.97,33.62,4.55,32.18,4.3z"/>
			<path class="st2" d="M39.69,7.17L26.2,54.8L43.06,9.61C42.05,8.68,40.95,7.92,39.69,7.17z"/>
			<path class="st2" d="M46.09,12.48L26.2,54.8l22.34-38.86C47.86,14.75,47.02,13.57,46.09,12.48z"/>
			<path class="st2" d="M50.39,19.39L26.2,54.8l25.54-31.44C51.41,22.09,50.98,20.82,50.39,19.39z"/>
			<path class="st2" d="M52.08,31.53c0.34-1.26,0.42-2.78,0.34-4.47L26.2,54.8L52.08,31.53z"/>
			<path class="st2" d="M26.2,54.8l15.51-10.03c1.52-2.11,5.9-5.99,7.17-7.42c0,0,0,0,0-0.08L26.2,54.8z"/>
			<g>
				<path class="st2" d="M29.66,53.28l12.48-5.56c-0.25-0.51-0.42-0.93-0.59-1.26L28.9,53.36C29.07,53.28,29.32,53.28,29.66,53.28z"
					/>
			</g>
			<g>
				<path class="st2" d="M32.18,53.19l10.79-2.87c0-0.51-0.08-1.01-0.25-1.43l-12.14,4.3C31,53.19,31.59,53.19,32.18,53.19z"/>
			</g>
			<g>
				<path class="st2" d="M41.96,53.11c0.34-0.51,0.59-0.93,0.76-1.35l-7.84,1.43C38,53.19,41.29,53.19,41.96,53.11z"/>
			</g>
			<path class="st2" d="M26.2,54.8L20.21,4.3c-1.43,0.34-2.78,0.76-4.05,1.26L26.2,54.8L26.2,54.8z"/>
			<path class="st2" d="M26.2,54.8L12.8,7.17c-1.26,0.76-2.44,1.52-3.46,2.44L26.2,54.8L26.2,54.8z"/>
			<path class="st2" d="M26.2,54.8L6.39,12.48c-0.93,1.1-1.77,2.28-2.44,3.37L26.2,54.8L26.2,54.8z"/>
			<path class="st2" d="M26.2,54.8L2.09,19.39c-0.59,1.35-1.01,2.7-1.35,3.88L26.2,54.8L26.2,54.8z"/>
			<path class="st2" d="M26.2,54.8L0.07,27.06c-0.17,1.77,0,3.2,0.34,4.47L26.2,54.8L26.2,54.8z"/>
			<path class="st2" d="M26.2,54.8L3.44,37.26c0,0,0,0,0,0.08c1.26,1.43,5.65,5.31,7.17,7.42L26.2,54.8L26.2,54.8z"/>
			<g>
				<path class="st2" d="M17.6,53.19l-7.84-1.43c0.17,0.42,0.42,0.93,0.76,1.35C11.11,53.19,14.48,53.19,17.6,53.19z"/>
			</g>
			<g>
				<path class="st2" d="M22.83,53.28c0.34,0,0.59,0,0.76,0.08l-12.65-6.91c-0.17,0.34-0.42,0.84-0.59,1.26L22.83,53.28z"/>
			</g>
			<g>
				<path class="st2" d="M20.3,53.19c0.59,0,1.1,0,1.6,0l-12.14-4.3c-0.17,0.42-0.25,0.93-0.25,1.43L20.3,53.19z"/>
			</g>
		</g>
		<g>
			<path class="st3" d="M16,0c0,1.01,0.76,1.6,1.35,2.11c0.59,0.59,1.35,1.01,1.85,1.6c-0.84-0.42-1.6-0.84-2.36-1.35
				c-0.59-0.34-1.18-0.67-1.85-1.01c-0.17-0.08-0.42-0.25-0.67-0.17c-0.08,0.25,0.17,0.51,0.25,0.67c0.42,0.42,1.01,0.76,1.52,1.18
				c0.51,0.34,1.1,0.67,1.52,1.1c-0.34,0-0.67-0.25-1.01-0.34c-0.84-0.34-1.69-0.67-2.61-1.01c-0.17-0.08-0.34-0.17-0.51,0
				c0,0.34,0.34,0.51,0.51,0.67c0.42,0.34,0.93,0.59,1.43,0.93c0.25,0.17,0.51,0.34,0.59,0.59c-0.08,0.17-0.34,0.08-0.51,0
				s-0.34-0.08-0.51-0.17s-0.84-0.51-1.01-0.17c-0.08,0.17,0.17,0.51,0.25,0.67c0.34,0.34,0.51,0.51,0.84,0.84
				c0.08,0.08,0.17,0.25,0.34,0.34C15.58,6.66,16,6.83,16.08,7c0,0.08,0,0.34,0.08,0.51c0.08,0.34,0.42,0.51,0.42,0.76
				c0,0.17-0.34,0.34-0.42,0.59c-0.08,0.34,0.17,0.59,0.34,0.84c0.08,0.17,0.25,0.25,0.25,0.42c0,0.25-0.25,0.34-0.25,0.51
				c-0.08,0.25,0.17,0.51,0.34,0.67c0.17,0.17,0.42,0.34,0.42,0.59c0,0.25-0.25,0.42-0.25,0.67c0,0.25,0.17,0.59,0.42,0.76
				c0.25,0.25,0.76,0.25,0.93,0.59c-0.08,0.17-0.25,0.17-0.34,0.34c0,0.17,0.25,0.34,0.34,0.51c0,0.25-0.25,0.51-0.25,0.93
				c0,0.17,0.25,0.34,0.25,0.51c0,0.17-0.17,0.34-0.08,0.59c0,0.17,0.34,0.34,0.34,0.51c0,0.17-0.08,0.34,0,0.51
				c0,0.17,0.25,0.25,0.25,0.42c0.08,0.25-0.08,0.51,0,0.67c0.08,0.17,0.34,0.25,0.34,0.42c0.08,0.17,0,0.34,0,0.51
				c0,0.17,0.17,0.25,0.17,0.42c0.08,0.34,0,0.76,0.08,1.18c0,0.17,0.25,0.25,0.34,0.42c0.08,0.17,0,0.25,0.08,0.42
				c0,0.17,0.17,0.25,0.17,0.42c0.08,0.17,0.08,0.34,0.08,0.51c0.08,0.17,0.25,0.17,0.34,0.34c0.08,0.08,0.08,0.25,0.17,0.42
				c0.08,0.17,0.34,0.25,0.42,0.42c0.08,0.08,0.08,0.25,0.08,0.42c0.08,0.08,0.34,0.17,0.42,0.34c0.08,0.08,0.08,0.25,0.17,0.34
				c0.08,0.17,0.34,0.17,0.42,0.34s0,0.34,0.08,0.51c0.17,0.17,0.59,0.08,0.67,0.34c-0.08,0.34-0.08,0.84-0.34,0.93
				c-0.17,0.08-0.51,0.08-0.84,0.08c-1.43,0-2.7,0-4.05-0.08c-0.25,0-0.59,0-0.84,0c-0.42,0.08-0.84,0.17-0.93,0.67
				c0,0.34,0.42,0.42,0.42,0.76c0,0.25-0.42,0.51-0.42,0.76c0,0.25,0.34,0.76,0.51,0.84c0.17,0.08,0.42,0.08,0.59,0.17
				c0.17,0,0.42,0,0.59,0.17c-0.17,0.34-0.59,0.42-0.93,0.67c-0.34,0.17-0.76,0.42-0.67,0.84c0,0.34,0.42,0.59,0.67,0.59
				c0.42,0.08,0.93-0.17,1.01,0.08c0.08,0.25-0.34,0.42-0.51,0.67c-0.17,0.17-0.51,0.51-0.34,0.76c0.08,0.25,0.59,0.25,0.93,0.17
				c0.25-0.08,0.59-0.17,0.76-0.34c0.25-0.08,0.51-0.34,0.76-0.25c0,0.25-0.25,0.42-0.34,0.67c-0.17,0.25-0.51,0.67-0.42,1.18
				c0,0.17,0.25,0.51,0.42,0.51c0.17,0.08,0.25,0,0.42,0.08c0.42,0.17,0.34,0.93,0.84,1.01c0.42,0,0.93-0.59,1.18-0.84
				c0.17-0.17,0.34-0.25,0.51-0.51c0.17-0.17,0.34-0.51,0.51-0.51c0.25,0,0.08,0.51,0,0.59c-0.08,0.08-0.25,0.34-0.25,0.59
				c0,0.08,0.08,0.17,0.17,0.34s0,0.42,0.08,0.59c0.08,0.25,0.34,0.59,0.59,0.59c0.34,0.08,0.42-0.25,0.76-0.25
				c0.25,0,0.34,0.25,0.59,0.25c0.59,0,0.84-0.93,0.93-1.43c0.08-0.25,0.17-0.59,0.25-0.93c0.08-0.25,0.17-0.76,0.34-0.84
				c0.08-0.08,0.25,0,0.34,0c0.17,0,0.34-0.17,0.51-0.25c0.17-0.08,0.34-0.25,0.51-0.17c0.17,0.08,0,0.17,0.08,0.42
				c0.08,0.25,0.67,0.59,0.93,0.84c0.08,0.08,0.08,0.25,0.17,0.34c0.08,0.08,0.17,0.08,0.34,0.17c0.08,0.08,0.17,0.25,0.25,0.34
				c0.08,0.08,0.25,0.08,0.34,0.25c0.08,0.08,0.08,0.25,0.25,0.34c0.08,0.08,0.34,0.17,0.34,0.25c0.08,0.08,0.08,0.25,0.08,0.34
				c0.08,0.08,0.25,0.17,0.34,0.25c0.17,0.08,0.42,0.08,0.51,0.17c0.08,0.08,0.08,0.34,0.25,0.51c0.17,0.17,0.51,0.17,0.67,0.34
				c0.08,0.17,0.08,0.34,0.17,0.51c0.08,0.08,0.17,0.17,0.34,0.25c0.08,0.08,0.25,0,0.42,0.08c0.17,0.08,0.08,0.42,0.25,0.59
				c0.08,0.08,0.25,0.17,0.42,0.17c0.08,0,0.25-0.08,0.42-0.08c0.17,0,0.25,0.17,0.51,0.25c0.08,0.08-0.08,0.25,0,0.34
				c0.17,0.08,0.34,0.08,0.42,0.17c0.08,0.17,0,0.25,0,0.51c0.08,0.25,0.34,0.76,0.67,0.84c0.17,0,0.34-0.17,0.59-0.08
				c0.17,0.08,0.17,0.25,0.25,0.42c0.17,0.34,0.42,0.84,0.76,0.93c0.17,0,0.25-0.08,0.42-0.08c0.25,0.08,0.34,0.42,0.42,0.67
				c0.08,0.17,0.34,0.51,0.59,0.51s0.42-0.17,0.51-0.34c0.08-0.25,0.17-0.59,0.34-0.67c0.34,0,0.25,0.51,0.25,0.67
				c0.08,0.84,0.42,1.18,0.84,1.77c0.17,0.25,0.51,0.59,0.67,0.59c0.17,0,0.25-0.08,0.42,0c0.17,0,0.25,0.34,0.42,0.51
				c0.08,0.25,0.25,0.42,0.34,0.59c0.25,0.42,0.34,0.84,0.84,0.93c0.25-0.25,0.17-0.84,0.08-1.26c0-0.51-0.08-0.93-0.08-1.43
				c0-0.25,0.08-0.76,0.25-0.84c0.42-0.08,0.42,0.67,0.51,1.1c0.17,1.18,0.34,2.53,0.76,3.54c0.17,0.34,0.34,0.76,0.76,0.93
				c0.08-0.08,0.08-0.34,0.08-0.51c0-1.52-0.25-3.12-0.34-4.55c0.25,0.42,0.25,1.01,0.42,1.52c0.25,0.76,0.42,1.35,0.93,1.77
				c0.08,0.08,0.17,0.25,0.34,0.25c0.17-0.17,0.08-0.42,0.08-0.67c-0.17-1.69-0.59-3.29-0.93-4.81c0.25,0.17,0.25,0.51,0.42,0.76
				c0.17,0.51,0.42,1.01,0.84,1.35c0.17,0.17,0.34,0.34,0.59,0.34c0.08-0.42-0.08-0.84-0.17-1.18c-0.59-1.77-1.52-3.29-2.28-4.97
				c-0.17-0.34-0.34-0.67-0.51-0.93c-0.17-0.34-0.34-0.59-0.51-0.93c-0.25-0.42-0.59-0.93-0.93-1.43c-1.26-1.18-1.94-2.11-2.7-2.87
				c-0.42-0.42-0.76-0.76-1.26-1.1c-0.42-0.34-0.84-0.67-1.26-1.1c-0.84-0.76-1.52-1.52-2.19-2.44c-0.34-0.42-0.67-0.84-1.01-1.35
				c-0.08-0.17-0.25-0.51-0.25-0.67c0-0.17,0.34-0.42,0.42-0.59c0.17-0.17,0.25-0.42,0.42-0.59c0.17-0.17,0.42-0.42,0.67-0.51
				c0.17-0.08,0.59-0.34,0.84-0.34c0.17,0,0.17,0.17,0.34,0.25c0.25-0.17,0.25-0.34,0.25-0.59c0-0.17-0.08-0.25-0.17-0.42
				c-0.08-0.25,0-0.42-0.08-0.67c-0.17-0.25-0.42-0.34-0.67-0.51c-0.51-0.34-1.18-0.59-2.02-0.51c-0.42,0-0.84,0.17-1.26,0.08
				c-0.25,0-0.59-0.25-0.84-0.42c-0.25-0.17-0.51-0.42-0.67-0.59c-0.34-0.34-0.67-0.84-0.93-1.26c-1.01-1.77-1.85-3.79-2.36-6.07
				c-0.17-0.84-0.08-1.77-0.34-2.61c0-0.08-0.08-0.25-0.17-0.34c0-0.17,0-0.25-0.08-0.42c-0.17-0.51-0.51-1.1-0.76-1.52
				c-0.25-0.51-0.67-0.84-1.01-1.26c-0.17-0.17-0.25-0.42-0.34-0.67c-0.42-0.59-0.84-1.18-1.26-1.69c-0.34-0.34-0.67-0.67-0.93-1.1
				c-1.35-1.6-2.61-3.29-4.13-4.81c-0.17-0.17-0.34-0.42-0.59-0.42c-0.08,0.25,0,0.59,0.08,0.84c0.34,0.93,1.26,1.52,1.77,2.36
				c-0.42-0.25-0.84-0.59-1.18-0.93c-0.34-0.08-0.76-0.42-1.1-0.76C17.85,1.26,17.09,0.51,16.25,0C16.17,0,16.17,0,16,0z"/>
		</g>
	</g>
	<g>
		<path class="st4" d="M66.33,22.93h-2.14v6.04l2.14,2.14h-8.46l2.14-2.14V13.28l-2.14-2.14h8.46c3.89,0,8.15,1.64,8.15,5.9
			C74.48,21.29,70.22,22.93,66.33,22.93z M66.33,13.19h-2.14v7.67h2.14c2,0,3.55-1.52,3.55-3.84S68.33,13.19,66.33,13.19z"/>
		<path class="st4" d="M79.96,23.77c0,3.92,0.62,5.81,3.55,5.81c1.81,0,3.39-1.1,4.15-2l1.1,1.1c-1.61,1.67-3.33,2.79-6.66,2.79
			c-3.89,0-7.03-3.13-7.03-7.53c0-4.06,2.79-7.53,7.31-7.53c3.81,0,7.42,2.91,6.21,7.36H79.96z M79.96,21.99h4.32
			c0.68-1.38,0.51-3.81-1.89-3.81C80.61,18.19,79.96,19.68,79.96,21.99z"/>
		<path class="st4" d="M97.99,31.47c-3.7,0-7.03-3.02-7.03-7.53c0-4.57,3.27-7.53,7.03-7.53c2.31,0,3.87,0.42,5.47,1.33v4.29
			l-2.74-2.74c-0.76-0.76-1.47-1.1-2.51-1.1c-2.31,0-2.37,2.29-2.37,5.76c0,4.06,0.93,5.7,3.39,5.7c1.27,0,2.37-0.68,3.3-1.52
			l0.99,1.27C101.8,30.97,100.42,31.47,97.99,31.47z"/>
		<path class="st4" d="M112.81,31.47c-4.26,0-7.73-3.27-7.73-7.53c0-4.26,3.47-7.53,7.73-7.53c4.26,0,7.73,3.27,7.73,7.53
			C120.54,28.2,117.07,31.47,112.81,31.47z M112.81,18.04c-2.54,0-2.85,3.22-2.85,5.9c0,2.68,0.31,5.9,2.85,5.9s2.85-3.22,2.85-5.9
			C115.66,21.26,115.35,18.04,112.81,18.04z"/>
		<path class="st4" d="M132.7,31.11V20.44c0-0.51-0.31-1.38-1.3-1.38c-0.51,0-1.21,0.34-2.03,1.18l-1.38,1.38v7.48l2,2h-8.18l2-2
			v-8.66l-1.95-1.95l6.12-2.09v3.05l1.21-1.21c1.5-1.5,2.91-1.83,3.75-1.83c2.43,0,3.92,1.83,3.92,3.81v8.89l2,2H132.7z"/>
		<path class="st4" d="M139.67,31.11l2-2v-8.66l-1.95-1.95l6.12-2.09v12.7l2,2H139.67z M143.77,14.88c-1.13,0-2.09-0.96-2.09-2.09
			s0.96-2.09,2.09-2.09s2.09,0.96,2.09,2.09S144.89,14.88,143.77,14.88z"/>
		<path class="st4" d="M156.07,31.47c-3.7,0-7.03-3.02-7.03-7.53c0-4.57,3.27-7.53,7.03-7.53c2.31,0,3.87,0.42,5.47,1.33v4.29
			l-2.74-2.74c-0.76-0.76-1.47-1.1-2.51-1.1c-2.31,0-2.37,2.29-2.37,5.76c0,4.06,0.93,5.7,3.39,5.7c1.27,0,2.37-0.68,3.3-1.52
			l0.99,1.27C159.88,30.97,158.49,31.47,156.07,31.47z"/>
		<path class="st4" d="M167.53,31.11l2.14-2.14V13.28l-2.14-2.14h14.08v4.77l-2.71-2.71h-5.05v6.26h3.5l2.14-2.14v6.35l-2.14-2.14
			h-3.5v7.53h5.05l2.71-2.71v4.77H167.53z"/>
		<path class="st4" d="M188.8,31.47c-1.02,0-1.86-0.25-1.86-0.25l-4.23-1.33l2.29-3.05l1.83,2.37c0.48,0.42,1.04,0.79,1.89,0.79
			c1.21,0,2.06-0.62,2.06-1.89c0-0.62-0.37-1.02-0.82-1.27l-4.32-2.43c-1.35-0.76-2-2.03-2-3.36c0-3.33,2.51-4.66,5.02-4.66
			c0.59,0,1.18,0.11,1.69,0.25l3.95,1.18l-2.14,3.05l-1.61-2.12c-0.4-0.51-1.13-0.85-1.89-0.85c-1.1,0-1.69,0.62-1.69,1.47
			c0,0.48,0.28,0.9,0.73,1.19l4.09,2.51c1.33,0.82,2.17,1.92,2.17,3.72C193.97,29.78,191.82,31.47,188.8,31.47z"/>
		<path class="st4" d="M202.15,18.55v10.58c1.1,0.42,2.09-0.06,2.85-1.19l0.99,0.99c-1.02,2.12-2.99,2.46-3.92,2.46
			c-2.48,0-4.09-1.58-4.09-3.7v-8.15h-2.57l6.74-6.74v3.98h3.67v1.78H202.15z"/>
		<path class="st4" d="M216.94,31.11v-2.6l-1.21,1.21c-1.5,1.47-2.71,1.75-3.64,1.75c-2.4,0-3.75-1.81-3.75-3.67v-7.36l-1.95-1.95
			l6.12-2.09v11.12c0,0.45,0.28,1.27,1.19,1.27c0.48,0,1.13-0.31,1.86-1.07l1.38-1.38v-5.9l-1.95-1.95l6.12-2.09v12.7l2,2H216.94z"
			/>
		<path class="st4" d="M232.71,31.11v-2.26l-2.54,1.86c-0.65,0.48-1.47,0.76-2.51,0.76c-1.95,0-3.41-1.58-3.41-4.09
			c0-3.44,3.16-5.05,6.32-5.05h2.14v-1.86c0-1.13-0.48-2.29-1.81-2.29c-1.04,0-1.89,0.51-2.51,1.1l-2.88,2.74v-4.29
			c1.81-0.99,3.53-1.33,5.61-1.33c2.99,0,5.76,1.5,5.76,4.06v8.63l2,2H232.71z M232.71,23.97h-1.44c-1.97,0-2.99,0.96-2.99,2.99
			c0,1.18,0.62,1.92,1.41,1.92c0.28,0,0.82-0.2,1.21-0.48l1.81-1.33V23.97z"/>
		<path class="st4" d="M245.92,29.1l2,2h-8.18l2-2v-8.66l-1.95-1.95l6.12-2.09v2.51l0.93-1.02c0.65-0.73,2.03-1.5,3.58-1.5
			c0.25,0,0.96,0.11,1.41,0.23v5.73l-3.39-3.39l-2.54,2.51V29.1z"/>
		<path class="st4" d="M267,18.78l-6.57,16l1.97,1.97h-6.97l2.77-2l1.5-3.67l-5.28-12.3l-2-2h8.32l-1.98,1.97l3.1,7.11l2.91-7.11
			l-1.97-1.97H269L267,18.78z"/>
		<path class="st0" d="M64.8,46.31h-1.78v5.02l1.78,1.78h-7.03l1.78-1.78V38.29l-1.78-1.78h7.03c3.23,0,6.77,1.36,6.77,4.9
			S68.03,46.31,64.8,46.31z M64.8,38.22h-1.78v6.38h1.78c1.66,0,2.95-1.27,2.95-3.19S66.46,38.22,64.8,38.22z"/>
		<path class="st0" d="M78.75,53.11v-1.88l-2.11,1.55c-0.54,0.4-1.22,0.63-2.09,0.63c-1.62,0-2.84-1.31-2.84-3.4
			c0-2.86,2.63-4.2,5.25-4.2h1.78v-1.55c0-0.94-0.4-1.9-1.5-1.9c-0.87,0-1.57,0.42-2.09,0.91l-2.39,2.27V42
			c1.5-0.82,2.93-1.1,4.66-1.1c2.48,0,4.78,1.24,4.78,3.38v7.17l1.66,1.66H78.75z M78.75,47.18h-1.2c-1.64,0-2.48,0.8-2.48,2.48
			c0,0.98,0.52,1.59,1.17,1.59c0.23,0,0.68-0.16,1.01-0.4l1.5-1.1V47.18z"/>
		<path class="st0" d="M89.25,51.44l1.66,1.66h-6.8l1.66-1.66v-7.2l-1.62-1.62l5.09-1.73v2.09l0.77-0.84
			c0.54-0.61,1.69-1.24,2.98-1.24c0.21,0,0.8,0.09,1.17,0.19v4.76l-2.81-2.81l-2.11,2.09V51.44z"/>
		<path class="st0" d="M99.82,42.68v8.79c0.91,0.35,1.73-0.05,2.37-0.98l0.82,0.82c-0.84,1.76-2.48,2.04-3.26,2.04
			c-2.06,0-3.4-1.31-3.4-3.07V43.5h-2.13l5.6-5.6v3.3h3.05v1.48H99.82z"/>
		<path class="st0" d="M112.62,53.11v-8.86c0-0.42-0.26-1.15-1.08-1.15c-0.42,0-1.01,0.28-1.69,0.98l-1.15,1.15v6.21l1.66,1.66h-6.8
			l1.66-1.66v-7.2l-1.62-1.62l5.09-1.73v2.53l1.01-1.01c1.24-1.24,2.41-1.52,3.12-1.52c2.02,0,3.26,1.52,3.26,3.16v7.38l1.66,1.66
			H112.62z"/>
		<path class="st0" d="M122.62,47.01c0,3.26,0.52,4.83,2.95,4.83c1.5,0,2.81-0.91,3.45-1.66l0.91,0.91
			c-1.34,1.38-2.77,2.32-5.53,2.32c-3.23,0-5.84-2.6-5.84-6.26c0-3.38,2.32-6.26,6.07-6.26c3.16,0,6.16,2.41,5.16,6.12H122.62z
			 M122.62,45.54h3.59c0.56-1.15,0.42-3.16-1.57-3.16C123.16,42.37,122.62,43.61,122.62,45.54z"/>
		<path class="st0" d="M136.31,51.44l1.66,1.66h-6.8l1.66-1.66v-7.2l-1.62-1.62l5.09-1.73v2.09l0.77-0.84
			c0.54-0.61,1.69-1.24,2.98-1.24c0.21,0,0.8,0.09,1.17,0.19v4.76l-2.81-2.81l-2.11,2.09V51.44z"/>
		<path class="st0" d="M146.77,53.41c-0.84,0-1.55-0.21-1.55-0.21l-3.52-1.1l1.9-2.53l1.52,1.97c0.4,0.35,0.87,0.66,1.57,0.66
			c1.01,0,1.71-0.52,1.71-1.57c0-0.52-0.3-0.84-0.68-1.05l-3.59-2.02c-1.13-0.63-1.66-1.69-1.66-2.79c0-2.77,2.09-3.87,4.17-3.87
			c0.49,0,0.98,0.09,1.41,0.21l3.28,0.98l-1.78,2.53l-1.34-1.76c-0.33-0.42-0.94-0.7-1.57-0.7c-0.91,0-1.41,0.52-1.41,1.22
			c0,0.4,0.23,0.75,0.61,0.98l3.4,2.09c1.1,0.68,1.8,1.59,1.8,3.09C151.06,52.01,149.28,53.41,146.77,53.41z"/>
		<path class="st0" d="M160.9,53.11v-8.86c0-0.42-0.26-1.15-1.08-1.15c-0.42,0-1.01,0.28-1.69,0.98l-1.15,1.15v6.21l1.66,1.66h-6.8
			l1.66-1.66V38.62l-1.62-1.62l5.09-1.73v8.16l1.01-1.01c1.24-1.24,2.41-1.52,3.12-1.52c2.02,0,3.26,1.52,3.26,3.16v7.38l1.66,1.66
			H160.9z"/>
		<path class="st0" d="M166.69,53.11l1.66-1.66v-7.2l-1.62-1.62l5.09-1.73v10.55l1.66,1.66H166.69z M170.09,39.63
			c-0.94,0-1.73-0.8-1.73-1.73s0.8-1.73,1.73-1.73s1.73,0.8,1.73,1.73S171.03,39.63,170.09,39.63z"/>
		<path class="st0" d="M173.7,42.63l5.09-1.73v1.71c0.82-1.03,2.02-1.71,3.38-1.71c2.55,0,4.78,2.6,4.78,6.26s-2.23,6.26-4.78,6.26
			c-1.43,0-2.7-0.75-3.38-1.73v4.45l1.66,1.66h-6.8l1.66-1.66V44.25L173.7,42.63z M181.01,42.72c-0.91,0-1.88,0.87-2.23,1.76v5.34
			c0.35,0.89,1.31,1.76,2.23,1.76c1.31,0,1.92-1.31,1.92-4.43S182.32,42.72,181.01,42.72z"/>
	</g>
</g>
</svg>